<svg width="84" height="32" viewBox="0 0 84 32" fill="none" xmlns="http://www.w3.org/2000/svg">
<rect width="84" height="32" rx="12" fill="white"/>
<rect x="6" y="5" width="34" height="22" rx="11" fill="#42434B"/>
<g clip-path="url(#clip0_616_103102)">
<path d="M23.0002 9.33333V10.6667M23.0002 21.3333V22.6667M18.2868 11.2867L19.2268 12.2267M26.7735 19.7733L27.7135 20.7133M16.3335 16H17.6668M28.3335 16H29.6668M19.2268 19.7733L18.2868 20.7133M27.7135 11.2867L26.7735 12.2267M25.6668 16C25.6668 17.4728 24.4729 18.6667 23.0002 18.6667C21.5274 18.6667 20.3335 17.4728 20.3335 16C20.3335 14.5272 21.5274 13.3333 23.0002 13.3333C24.4729 13.3333 25.6668 14.5272 25.6668 16Z" stroke="white" stroke-linecap="round" stroke-linejoin="round"/>
</g>
<g clip-path="url(#clip1_616_103102)">
<path d="M61 10C61.7956 10.7956 62.2426 11.8748 62.2426 13C62.2426 14.1252 61.7956 15.2044 61 16C60.2043 16.7956 59.1252 17.2426 58 17.2426C56.8748 17.2426 55.7956 16.7956 55 16C55 17.1867 55.3519 18.3467 56.0112 19.3334C56.6705 20.3201 57.6075 21.0892 58.7039 21.5433C59.8003 21.9974 61.0067 22.1162 62.1705 21.8847C63.3344 21.6532 64.4035 21.0818 65.2426 20.2426C66.0818 19.4035 66.6532 18.3344 66.8847 17.1705C67.1162 16.0067 66.9974 14.8003 66.5433 13.7039C66.0891 12.6075 65.3201 11.6705 64.3334 11.0112C63.3467 10.3519 62.1867 10 61 10Z" stroke="#787983" stroke-linecap="round" stroke-linejoin="round"/>
</g>
<defs>
<clipPath id="clip0_616_103102">
<rect width="16" height="16" fill="white" transform="translate(15 8)"/>
</clipPath>
<clipPath id="clip1_616_103102">
<rect x="44" y="5" width="34" height="22" rx="11" fill="white"/>
</clipPath>
</defs>
</svg>
