<svg width="16" height="16" viewBox="0 0 16 16" fill="none" xmlns="http://www.w3.org/2000/svg">
<path d="M6.5858 8L3.2928 4.7071C2.9024 4.3166 2.9024 3.6834 3.2928 3.2929C3.6834 2.9024 4.3166 2.9024 4.7071 3.2929L8 6.5858L11.2929 3.2928C11.6834 2.9024 12.3166 2.9024 12.7071 3.2928C13.0976 3.6834 13.0976 4.3166 12.7071 4.7071L9.4142 8L12.7072 11.2929C13.0976 11.6834 13.0976 12.3166 12.7072 12.7071C12.3166 13.0976 11.6834 13.0976 11.2929 12.7071L8 9.4142L4.7071 12.7072C4.3166 13.0976 3.6834 13.0976 3.2929 12.7072C2.9024 12.3166 2.9024 11.6834 3.2929 11.2929L6.5858 8Z" fill="#42434B"/>
</svg>
