<svg width="16" height="16" viewBox="0 0 16 16" fill="none" xmlns="http://www.w3.org/2000/svg">
<g clip-path="url(#clip0_410_6377)">
<g clip-path="url(#clip1_410_6377)">
<path fill-rule="evenodd" clip-rule="evenodd" d="M6.25 12.5029C2.79822 12.5029 0 9.70471 0 6.25293C0 2.80115 2.79822 0.00292969 6.25 0.00292969C9.70178 0.00292969 12.5 2.80115 12.5 6.25293C12.5 7.6179 12.0624 8.88067 11.3199 9.90863L15.2071 13.7958C15.5976 14.1864 15.5976 14.8195 15.2071 15.2101C14.8166 15.6006 14.1834 15.6006 13.7929 15.2101L9.9057 11.3229C8.87775 12.0654 7.61497 12.5029 6.25 12.5029ZM6.25 10.5029C8.59721 10.5029 10.5 8.60014 10.5 6.25293C10.5 3.90572 8.59721 2.00293 6.25 2.00293C3.90279 2.00293 2 3.90572 2 6.25293C2 8.60014 3.90279 10.5029 6.25 10.5029Z" fill="#787983"/>
</g>
</g>
<defs>
<clipPath id="clip0_410_6377">
<rect width="16" height="16" fill="white"/>
</clipPath>
<clipPath id="clip1_410_6377">
<rect width="16" height="16" fill="white"/>
</clipPath>
</defs>
</svg>
